<?xml version="1.0" encoding="utf-8"?>
<!-- Generator: Adobe Illustrator 16.0.4, SVG Export Plug-In . SVG Version: 6.00 Build 0)  -->
<!DOCTYPE svg PUBLIC "-//W3C//DTD SVG 1.1//EN" "http://www.w3.org/Graphics/SVG/1.1/DTD/svg11.dtd">
<svg version="1.1" xmlns="http://www.w3.org/2000/svg" xmlns:xlink="http://www.w3.org/1999/xlink" x="0px" y="0px" width="728px"
	 height="90px" viewBox="0 0 728 90" enable-background="new 0 0 728 90" xml:space="preserve">
<g id="Ebene_1">
	<linearGradient id="SVGID_1_" gradientUnits="userSpaceOnUse" x1="0" y1="45" x2="728" y2="45">
		<stop  offset="0" style="stop-color:#FFFFFF"/>
		<stop  offset="1" style="stop-color:#000000"/>
	</linearGradient>
	<rect fill="url(#SVGID_1_)" fill-opacity="0.2" width="728" height="90"/>
</g>
<g id="status_4" display="none">
	<g display="inline">
		<circle fill="none" stroke="#000000" stroke-miterlimit="10" cx="658" cy="45" r="30"/>
		<circle fill="none" stroke="#000000" stroke-miterlimit="10" cx="644" cy="36" r="6"/>
		<circle fill="none" stroke="#000000" stroke-miterlimit="10" cx="672" cy="36.001" r="6"/>
		<ellipse fill="none" stroke="#000000" stroke-miterlimit="10" cx="658" cy="59.207" rx="16.5" ry="8"/>
		<line fill="none" stroke="#000000" stroke-miterlimit="10" x1="650.828" y1="51.804" x2="650.828" y2="51.805"/>
		<line fill="none" stroke="#000000" stroke-miterlimit="10" x1="648.957" y1="66.167" x2="648.957" y2="66.167"/>
	</g>
	<text transform="matrix(1 0 0 1 40.0005 54.4219)" display="inline" font-family="'OpenSans'" font-size="32">UND HIER DER LETZTE STATUS 4.</text>
</g>
<g id="status_3" display="none">
	<text transform="matrix(1 0 0 1 40 54.4219)" display="inline" font-family="'OpenSans'" font-size="32">DANN BIN ICH STATUS 3.</text>
</g>
<g id="status_2" display="none">
	<text transform="matrix(1 0 0 1 40 54.4219)" display="inline" font-family="'OpenSans'" font-size="32">ICH DER STATUS 2.</text>
</g>
<g id="status_1" display="none">
	<text transform="matrix(1 0 0 1 40 54.4219)" display="inline" font-family="'OpenSans'" font-size="32">ICH BIN DER BANNER STATUS 1.</text>
</g>
<g id="fallback">
	<g>
		<circle fill="none" stroke="#000000" stroke-miterlimit="10" cx="658" cy="45" r="30"/>
		<circle fill="none" stroke="#000000" stroke-miterlimit="10" cx="644" cy="36" r="6"/>
		<circle fill="none" stroke="#000000" stroke-miterlimit="10" cx="672" cy="36.001" r="6"/>
		<ellipse fill="none" stroke="#000000" stroke-miterlimit="10" cx="658" cy="59.207" rx="16.5" ry="8"/>
		<line fill="none" stroke="#000000" stroke-miterlimit="10" x1="650.827" y1="51.804" x2="650.827" y2="51.805"/>
		<line fill="none" stroke="#000000" stroke-miterlimit="10" x1="648.957" y1="66.167" x2="648.957" y2="66.167"/>
	</g>
	<text transform="matrix(1 0 0 1 40 54.4219)" font-family="'OpenSans'" font-size="32">ICH BIN DER FALLBACK :)</text>
</g>
</svg>
